<?xml version="1.0" encoding="UTF-8"?><svg id="Capa_2" xmlns="http://www.w3.org/2000/svg" xmlns:xlink="http://www.w3.org/1999/xlink" viewBox="0 0 1144.75 624.3"><defs><style>.cls-1{fill:#fff;}.cls-2{fill:#bf7e28;}.cls-3{opacity:0;}.cls-4{fill:url(#Gold_02);}.cls-5{fill:#2c2f4c;}</style><linearGradient id="Gold_02" x1="123.65" y1="354.84" x2="323.97" y2="354.84" gradientUnits="userSpaceOnUse"><stop offset="0" stop-color="#ce7900"/><stop offset=".16" stop-color="#e09926"/><stop offset=".39" stop-color="#f6c056"/><stop offset=".5" stop-color="#ffd069"/><stop offset=".61" stop-color="#f6c056"/><stop offset=".84" stop-color="#e09926"/><stop offset="1" stop-color="#ce7900"/></linearGradient></defs><g id="Capa_1"><g class="cls-3"><rect class="cls-1" width="1144.75" height="624.3"/></g><path class="cls-5" d="M411.84,290.92h-42.16l-8.04,19.46h-21.54l40.48-90.81h20.76l40.61,90.81h-22.05l-8.04-19.46ZM405.23,274.96l-14.4-34.77-14.4,34.77h28.8Z"/><path class="cls-5" d="M534.05,310.38l-.13-54.49-26.72,44.89h-9.47l-26.6-43.72v53.32h-19.72v-90.81h17.38l33.99,56.43,33.47-56.43h17.25l.26,90.81h-19.72Z"/><path class="cls-5" d="M569.59,264.97c0-26.98,21.02-46.96,49.69-46.96s49.69,19.85,49.69,46.96-21.15,46.96-49.69,46.96-49.69-19.98-49.69-46.96ZM647.69,264.97c0-17.25-12.2-29.06-28.41-29.06s-28.41,11.81-28.41,29.06,12.2,29.06,28.41,29.06,28.41-11.81,28.41-29.06Z"/><path class="cls-5" d="M684.79,219.57h21.02v73.69h45.54v17.12h-66.55v-90.81Z"/><path class="cls-5" d="M763.14,219.57h21.02v73.69h45.54v17.12h-66.55v-90.81Z"/><path class="cls-5" d="M839.55,270.42v-50.85h21.02v50.08c0,17.25,7.52,24.39,20.24,24.39s20.24-7.13,20.24-24.39v-50.08h20.76v50.85c0,26.72-15.31,41.51-41.12,41.51s-41.12-14.79-41.12-41.51Z"/><path class="cls-2" d="M342.89,373.02l2.52-5.31c3.54,3.2,9.6,5.52,15.74,5.52,8.24,0,11.78-3.2,11.78-7.36,0-11.65-28.88-4.29-28.88-22,0-7.36,5.72-13.62,18.25-13.62,5.59,0,11.38,1.5,15.33,4.22l-2.25,5.45c-4.15-2.66-8.85-3.88-13.08-3.88-8.11,0-11.58,3.41-11.58,7.56,0,11.65,28.88,4.36,28.88,21.87,0,7.29-5.86,13.55-18.46,13.55-7.29,0-14.44-2.45-18.25-5.99Z"/><path class="cls-2" d="M458.22,372.54v5.93h-34.6v-47.68h33.65v5.93h-26.84v14.65h23.91v5.79h-23.91v15.39h27.79Z"/><path class="cls-2" d="M535.2,378.47l-10.29-14.64c-.95.07-1.98.14-3,.14h-11.78v14.51h-6.81v-47.68h18.59c12.4,0,19.89,6.27,19.89,16.62,0,7.36-3.81,12.67-10.49,15.05l11.31,16.01h-7.42ZM534.99,347.41c0-6.81-4.56-10.69-13.28-10.69h-11.58v21.46h11.58c8.72,0,13.28-3.95,13.28-10.76Z"/><path class="cls-2" d="M628.32,330.79l-20.91,47.68h-6.74l-20.98-47.68h7.36l17.17,39.17,17.3-39.17h6.81Z"/><path class="cls-2" d="M668.45,330.79h6.81v47.68h-6.81v-47.68Z"/><path class="cls-2" d="M719.75,354.63c0-14.1,10.76-24.39,25.27-24.39,7.36,0,13.76,2.52,18.12,7.42l-4.43,4.29c-3.68-3.88-8.17-5.65-13.42-5.65-10.76,0-18.73,7.76-18.73,18.32s7.97,18.32,18.73,18.32c5.25,0,9.74-1.84,13.42-5.72l4.43,4.29c-4.36,4.9-10.76,7.49-18.19,7.49-14.44,0-25.2-10.29-25.2-24.39Z"/><path class="cls-2" d="M841.54,372.54v5.93h-34.6v-47.68h33.65v5.93h-26.84v14.65h23.91v5.79h-23.91v15.39h27.79Z"/><path class="cls-2" d="M882.29,373.02l2.52-5.31c3.54,3.2,9.6,5.52,15.74,5.52,8.24,0,11.78-3.2,11.78-7.36,0-11.65-28.88-4.29-28.88-22,0-7.36,5.72-13.62,18.25-13.62,5.59,0,11.38,1.5,15.33,4.22l-2.25,5.45c-4.15-2.66-8.85-3.88-13.08-3.88-8.11,0-11.58,3.41-11.58,7.56,0,11.65,28.88,4.36,28.88,21.87,0,7.29-5.86,13.55-18.46,13.55-7.29,0-14.44-2.45-18.25-5.99Z"/><polygon class="cls-5" points="223.81 285.08 200.52 325.4 141.27 359.34 223.81 210.93 306.35 359.34 247.1 325.4 223.81 285.08"/><path class="cls-4" d="M223.81,330.79c-10.06.6-20.02,3.44-29.11,8.5l-71.06,39.61h18.32c18.34,0,36.46-3.87,53.2-11.36l4.89-2.19c7.58-3.39,15.63-5.33,23.75-5.82,8.12.49,16.17,2.43,23.75,5.82l4.89,2.19c16.74,7.49,34.87,11.36,53.2,11.36h18.32l-71.06-39.61c-9.09-5.07-19.04-7.9-29.11-8.5Z"/></g></svg>